<svg width="51" height="47" viewBox="0 0 51 47" fill="none" xmlns="http://www.w3.org/2000/svg">
<g clip-path="url(#clip0_8_368)">
<path d="M48.9045 35.6913C46.4772 35.6913 45.1751 36.5842 44.1286 37.3018C43.1965 37.9411 42.5226 38.4029 40.9955 38.4029C39.4687 38.4029 38.7948 37.9407 37.8628 37.3018C36.8162 36.5842 35.5142 35.6913 33.0864 35.6913C30.6591 35.6913 29.3571 36.5842 28.3109 37.3018C27.3785 37.9411 26.705 38.4029 25.1778 38.4029C23.651 38.4029 22.9775 37.9407 22.0455 37.3018C20.9989 36.5842 19.6969 35.6913 17.2695 35.6913C14.8422 35.6913 13.5402 36.5842 12.4936 37.3018C11.5616 37.9411 10.8881 38.4029 9.3609 38.4029C7.83411 38.4029 7.16062 37.9407 6.22818 37.3018C5.18202 36.5842 3.87998 35.6913 1.45264 35.6913C0.650441 35.6913 0 36.3417 0 37.1439V45.7583C0 46.5605 0.650441 47.211 1.45264 47.211H48.9045C49.7067 47.211 50.3571 46.5605 50.3571 45.7583V37.1439C50.3571 36.3417 49.7067 35.6913 48.9045 35.6913ZM47.4519 44.3057H2.90528V38.7871C3.5392 38.9804 4.01368 39.3058 4.58536 39.6977C5.63152 40.415 6.93394 41.3082 9.36128 41.3082C11.7882 41.3082 13.0907 40.415 14.1368 39.6977C15.0693 39.0584 15.7428 38.5966 17.2695 38.5966C18.7963 38.5966 19.4698 39.0584 20.4023 39.6977C21.4484 40.415 22.7508 41.3082 25.1778 41.3082C27.6051 41.3082 28.9076 40.415 29.9537 39.6977C30.8858 39.0584 31.5597 38.5966 33.0864 38.5966C34.6136 38.5966 35.2871 39.0584 36.2196 39.6977C37.2657 40.415 38.5681 41.3082 40.9955 41.3082C43.4228 41.3082 44.7252 40.415 45.7714 39.6977C46.3435 39.3054 46.8179 38.9804 47.4519 38.7871V44.3057Z" fill="#263A93"/>
<path d="M11.5235 26.7311C10.5227 27.5341 9.15186 28.6344 9.15186 30.7986C9.15186 31.6008 9.8023 32.2512 10.6045 32.2512C11.4067 32.2512 12.0571 31.6008 12.0571 30.7986C12.0571 30.0943 12.4094 29.7451 13.3423 28.9967C14.3431 28.1933 15.7139 27.0934 15.7139 24.9292C15.7139 22.7651 14.3431 21.6647 13.3423 20.8614C12.4094 20.113 12.0571 19.7637 12.0571 19.0595C12.0571 18.3557 12.4094 18.0064 13.3419 17.258C14.3431 16.4547 15.7139 15.3547 15.7139 13.1905C15.7139 11.0264 14.3431 9.92643 13.3419 9.12308C12.4094 8.37467 12.0571 8.02544 12.0571 7.32159C12.0571 6.61737 12.4094 6.26813 13.3419 5.52011C14.3431 4.71676 15.7139 3.61642 15.7139 1.45264C15.7139 0.650441 15.0635 0 14.2613 0C13.4591 0 12.8086 0.650441 12.8086 1.45264C12.8086 2.15648 12.4563 2.50572 11.5239 3.25413C10.5227 4.05709 9.15186 5.15743 9.15186 7.32121C9.15186 9.48538 10.5227 10.5857 11.5239 11.3887C12.4563 12.1371 12.8086 12.4863 12.8086 13.1905C12.8086 13.8944 12.4563 14.2436 11.5235 14.992C10.5227 15.7954 9.15186 16.8953 9.15186 19.0595C9.15186 21.2237 10.5227 22.324 11.5235 23.1274C12.4563 23.8758 12.8086 24.225 12.8086 24.9288C12.8086 25.6331 12.4563 25.9827 11.5235 26.7311Z" fill="#272727"/>
<path d="M20.0209 26.7311C19.0197 27.5341 17.6489 28.6344 17.6489 30.7986C17.6489 31.6008 18.2994 32.2512 19.1016 32.2512C19.9038 32.2512 20.5542 31.6008 20.5542 30.7986C20.5542 30.0943 20.9069 29.7451 21.8393 28.9967C22.8402 28.1933 24.211 27.0934 24.211 24.9292C24.211 22.7651 22.8402 21.6647 21.8393 20.8614C20.9069 20.113 20.5542 19.7637 20.5542 19.0595C20.5542 18.3557 20.9069 18.0064 21.8393 17.258C22.8402 16.4547 24.211 15.3547 24.211 13.1905C24.211 11.0264 22.8402 9.92643 21.8393 9.12308C20.9069 8.37467 20.5542 8.02544 20.5542 7.32159C20.5542 6.61737 20.9069 6.26813 21.8393 5.52011C22.8402 4.71676 24.211 3.61642 24.211 1.45264C24.211 0.650441 23.5605 0 22.7583 0C21.9561 0 21.3057 0.650441 21.3057 1.45264C21.3057 2.15648 20.9534 2.50572 20.0209 3.25413C19.0201 4.05748 17.6489 5.15743 17.6489 7.32159C17.6489 9.48538 19.0201 10.5857 20.0209 11.3887C20.9534 12.1375 21.3057 12.4863 21.3057 13.1905C21.3057 13.8944 20.9534 14.2436 20.0209 14.992C19.0197 15.7954 17.6489 16.8953 17.6489 19.0595C17.6489 21.2237 19.0197 22.324 20.0209 23.1274C20.9534 23.8758 21.3057 24.225 21.3057 24.9292C21.3057 25.6331 20.9534 25.9827 20.0209 26.7311Z" fill="#263A93"/>
<path d="M28.5181 26.7311C27.5173 27.5341 26.1465 28.6344 26.1465 30.7986C26.1465 31.6008 26.7969 32.2512 27.5991 32.2512C28.4013 32.2512 29.0518 31.6008 29.0518 30.7986C29.0518 30.0943 29.4041 29.7451 30.3369 28.9967C31.3377 28.1933 32.7085 27.0934 32.7085 24.9292C32.7085 22.7651 31.3377 21.6647 30.3369 20.8614C29.4041 20.113 29.0518 19.7637 29.0518 19.0595C29.0518 18.3557 29.4041 18.0064 30.3365 17.258C31.3377 16.4547 32.7085 15.3547 32.7085 13.1905C32.7085 11.0264 31.3377 9.92643 30.3365 9.12308C29.4041 8.37467 29.0518 8.02544 29.0518 7.32159C29.0518 6.61737 29.4041 6.26813 30.3365 5.52011C31.3377 4.71676 32.7085 3.61642 32.7085 1.45264C32.7085 0.650441 32.0581 0 31.2559 0C30.4537 0 29.8032 0.650441 29.8032 1.45264C29.8032 2.15648 29.4509 2.50572 28.5185 3.25413C27.5173 4.05748 26.1465 5.15743 26.1465 7.32159C26.1465 9.48538 27.5173 10.5857 28.5185 11.3887C29.4509 12.1375 29.8032 12.4863 29.8032 13.1905C29.8032 13.8944 29.4509 14.2436 28.5181 14.992C27.5173 15.7954 26.1465 16.8953 26.1465 19.0595C26.1465 21.2237 27.5173 22.324 28.5181 23.1274C29.4509 23.8758 29.8032 24.225 29.8032 24.9292C29.8032 25.6331 29.4509 25.9827 28.5181 26.7311Z" fill="#272727"/>
<path d="M37.0161 26.7311C36.0152 27.5341 34.6444 28.6344 34.6444 30.7986C34.6444 31.6008 35.2945 32.2512 36.0967 32.2512C36.8993 32.2512 37.5493 31.6008 37.5493 30.7986C37.5493 30.0943 37.902 29.7451 38.8345 28.9967C39.8353 28.1933 41.2061 27.0934 41.2061 24.9292C41.2061 22.7651 39.8353 21.6647 38.8345 20.8614C37.902 20.113 37.5493 19.7637 37.5493 19.0595C37.5493 18.3557 37.902 18.0064 38.8345 17.258C39.8353 16.4547 41.2061 15.3547 41.2061 13.1905C41.2061 11.0264 39.8353 9.92643 38.8345 9.12308C37.902 8.37467 37.5493 8.02544 37.5493 7.32159C37.5493 6.61737 37.902 6.26813 38.8345 5.52011C39.8353 4.71676 41.2061 3.61642 41.2061 1.45264C41.2061 0.650441 40.5556 0 39.7534 0C38.9512 0 38.3008 0.650441 38.3008 1.45264C38.3008 2.15648 37.9485 2.50572 37.0161 3.25413C36.0148 4.05748 34.644 5.15743 34.644 7.32159C34.644 9.48538 36.0148 10.5857 37.0157 11.3887C37.9485 12.1375 38.3008 12.4863 38.3008 13.1905C38.3008 13.8944 37.9485 14.2436 37.0157 14.992C36.0148 15.7954 34.644 16.8953 34.644 19.0595C34.644 21.2237 36.0148 22.324 37.0157 23.1274C37.9485 23.8758 38.3008 24.225 38.3008 24.9292C38.3008 25.6331 37.9485 25.9827 37.0161 26.7311Z" fill="#263A93"/>
</g>
<defs>
<clipPath id="clip0_8_368">
<rect width="50.3571" height="47" fill="white"/>
</clipPath>
</defs>
</svg>
