<svg width="60" height="60" viewBox="0 0 60 60" fill="none" xmlns="http://www.w3.org/2000/svg">
<path d="M33.9844 60H26.0156C24.7234 60 23.6719 58.9485 23.6719 57.6562V54.1576C21.4668 53.5812 19.3625 52.7087 17.395 51.5547L14.919 54.0308C14.0048 54.9445 12.518 54.9445 11.6043 54.0308L5.96924 48.3957C5.05554 47.482 5.05554 45.9952 5.96924 45.0815L8.44528 42.605C7.29126 40.6375 6.41876 38.5332 5.84244 36.3281H2.34375C1.05148 36.3281 0 35.2766 0 33.9844V26.0156C0 24.7234 1.05148 23.6719 2.34375 23.6719H5.83466C6.40915 21.4632 7.28073 19.3552 8.43475 17.384L5.96924 14.9185C5.05554 14.0048 5.05554 12.518 5.96924 11.6043L11.6043 5.96924C12.518 5.05554 14.0048 5.05554 14.919 5.96924L17.3758 8.42651C19.3488 7.267 21.4595 6.39084 23.6719 5.81268V2.34375C23.6719 1.05148 24.7234 0 26.0156 0H33.9844C35.2766 0 36.3281 1.05148 36.3281 2.34375V5.8049C38.5437 6.38123 40.6586 7.25647 42.6347 8.41553L45.0815 5.96924C45.9952 5.05554 47.482 5.05554 48.3957 5.96924L54.0308 11.6043C54.9445 12.518 54.9445 14.0048 54.0308 14.919L51.5845 17.3653C52.7435 19.3414 53.6188 21.4563 54.1951 23.6719H57.6562C58.9485 23.6719 60 24.7234 60 26.0156V33.9844C60 35.2766 58.9485 36.3281 57.6562 36.3281H54.1873C53.6092 38.5405 52.7325 40.6512 51.5735 42.6242L54.0303 45.0815C54.944 45.9952 54.944 47.482 54.0303 48.3957L48.3957 54.0308C47.482 54.9445 45.9952 54.9445 45.081 54.0308L42.616 51.5652C40.6444 52.7193 38.5364 53.5909 36.3281 54.1653V57.6562C36.3281 58.9485 35.2766 60 33.9844 60ZM17.2192 48.9011C17.4371 48.9011 17.6555 48.9615 17.8496 49.0851C20.0793 50.5087 22.5179 51.5199 25.0969 52.0908C25.6339 52.2098 26.0156 52.6854 26.0156 53.2352V57.6562H33.9844V53.2416C33.9844 52.6913 34.3671 52.2153 34.9045 52.0972C37.4872 51.5286 39.9294 50.5188 42.1628 49.0961C42.626 48.8008 43.2326 48.8672 43.6212 49.2558L46.7386 52.3732L52.3732 46.7386L49.2627 43.6281C48.8736 43.239 48.8077 42.6315 49.1043 42.1678C50.533 39.9339 51.5483 37.4895 52.121 34.9031C52.2395 34.3661 52.7156 33.9844 53.2649 33.9844H57.6562V26.0156H53.2713C52.7211 26.0156 52.245 25.6329 52.1269 25.0955C51.557 22.5055 50.5435 20.0574 49.1148 17.8198C48.8191 17.3561 48.8855 16.7496 49.2741 16.3605L52.3732 13.2614L46.7386 7.6268L43.6395 10.7259C43.2509 11.1145 42.6439 11.1809 42.1802 10.8852C39.9426 9.45648 37.4945 8.44345 34.9045 7.87308C34.3671 7.75497 33.9844 7.2789 33.9844 6.72867V2.34375H26.0156V6.73508C26.0156 7.28485 25.6339 7.76047 25.0974 7.87949C22.5105 8.45215 20.0661 9.46701 17.8322 10.8957C17.3689 11.1923 16.761 11.1264 16.3724 10.7373L13.2614 7.6268L7.6268 13.2614L10.7442 16.3792C11.1328 16.7674 11.1992 17.374 10.9039 17.8372C9.4812 20.0706 8.47137 22.5128 7.90283 25.0955C7.78473 25.6329 7.30865 26.0156 6.75842 26.0156H2.34375V33.9844H6.76483C7.31461 33.9844 7.79022 34.3666 7.90924 34.9031C8.48007 37.4826 9.49173 39.9207 10.9149 42.1504C11.2106 42.6141 11.1447 43.2211 10.7556 43.6098L7.6268 46.7386L13.2614 52.3737L16.3902 49.2444C16.6168 49.0182 16.9167 48.9011 17.2192 48.9011Z" fill="#272727"/>
<path d="M29.9999 47.1016C25.6187 47.1016 21.2374 45.4335 17.9017 42.0982C11.2307 35.4272 11.2307 24.5727 17.9017 17.9017C20.5924 15.2115 24.0041 13.5287 27.7679 13.0362C31.4121 12.5592 35.1745 13.2815 38.3633 15.0696C38.9277 15.3859 39.1286 16.1 38.8123 16.6644C38.4956 17.2293 37.7814 17.4302 37.217 17.1135C31.4785 13.8954 24.217 14.9011 19.5592 19.5593C13.8019 25.3161 13.8019 34.6838 19.5592 40.4411C22.4377 43.3191 26.2192 44.7583 29.9999 44.7587C33.7815 44.7592 37.5622 43.32 40.4411 40.4411C44.9422 35.9399 46.0569 29.0922 43.2142 23.4018C42.9249 22.8227 43.1597 22.1187 43.7388 21.8294C44.3174 21.54 45.0214 21.7753 45.3107 22.3544C48.6048 28.948 47.3139 36.8829 42.0982 42.0982C38.7624 45.4335 34.3812 47.1016 29.9999 47.1016Z" fill="#263A93"/>
<path d="M41.5256 20.1576C41.2162 20.1576 40.915 20.0331 40.6957 19.8138C40.4778 19.5959 40.3538 19.2947 40.3538 18.9857C40.3538 18.6772 40.4778 18.3751 40.6957 18.1572C40.9136 17.9388 41.2162 17.8138 41.5256 17.8138C41.8337 17.8138 42.1358 17.9388 42.3542 18.1572C42.5721 18.3751 42.6975 18.6772 42.6975 18.9857C42.6975 19.2947 42.5721 19.5959 42.3542 19.8138C42.1349 20.0331 41.8337 20.1576 41.5256 20.1576Z" fill="#272727"/>
<path d="M28.346 38.633C28.0352 38.633 27.7372 38.5094 27.5175 38.2897L20.1068 30.8785C19.649 30.4212 19.649 29.6791 20.1068 29.2214L24.3099 25.0177C24.5297 24.798 24.8277 24.6749 25.1385 24.6749C25.4493 24.6749 25.7478 24.798 25.9675 25.0177L28.346 27.3967L34.0328 21.7104C34.4901 21.2526 35.2322 21.2526 35.6899 21.7104L39.8936 25.914C40.3509 26.3713 40.3509 27.1134 39.8936 27.5711L29.175 38.2897C28.9549 38.5094 28.6569 38.633 28.346 38.633ZM22.5924 30.0499L28.346 35.8036L37.4075 26.7426L34.8614 24.1965L29.175 29.8828C28.9553 30.1026 28.6569 30.2262 28.346 30.2262C28.0352 30.2262 27.7372 30.1026 27.5175 29.8828L25.1385 27.5038L22.5924 30.0499Z" fill="#263A93"/>
</svg>
