<svg width="60" height="60" viewBox="0 0 60 60" fill="none" xmlns="http://www.w3.org/2000/svg">
<g clip-path="url(#clip0_8_355)">
<path d="M51.4955 42.9789H50.2972V28.2425C50.2972 27.7562 49.903 27.3619 49.4166 27.3619H33.0371C32.5507 27.3619 32.1565 27.7562 32.1565 28.2425V42.9788H27.8434V28.2425C27.8434 27.7562 27.4491 27.3619 26.9627 27.3619H10.5834C10.0971 27.3619 9.70277 27.7562 9.70277 28.2425V42.9788H8.50465C3.81516 42.9789 0 46.794 0 51.4835V51.4954C0 56.1848 3.81516 60 8.50465 60H26.5329C27.0192 60 27.4136 59.6057 27.4136 59.1193C27.4136 58.633 27.0192 58.2387 26.5329 58.2387H8.50465C4.78629 58.2387 1.76121 55.2136 1.76121 51.4952V51.4834C1.76121 47.7652 4.78629 44.7401 8.50465 44.7401H18.1692C18.6555 44.7401 19.0499 44.3457 19.0499 43.8594C19.0499 43.3731 18.6555 42.9788 18.1692 42.9788H11.464V29.1232H15.5441V33.5565C15.561 34.1032 16.0806 34.6032 16.7254 34.3843L18.773 33.6408L20.8212 34.3843C21.3091 34.5786 22.015 34.1903 22.0023 33.5565V29.1232H26.0824V42.9789H21.692C21.2057 42.9789 20.8113 43.3732 20.8113 43.8595C20.8113 44.3459 21.2055 44.7402 21.692 44.7402H51.4957C55.2139 44.7402 58.239 47.7653 58.239 51.4835V51.4955C58.239 55.2137 55.2139 58.2389 51.4957 58.2389H30.0554C29.5691 58.2389 29.1748 58.6332 29.1748 59.1196C29.1748 59.6059 29.5691 60.0002 30.0554 60.0002H51.4955C56.1848 60 60 56.1848 60 51.4954V51.4834C60 46.794 56.1848 42.9789 51.4955 42.9789ZM20.2409 32.3L19.0733 31.8762C18.8793 31.8056 18.6664 31.8057 18.4723 31.8762L17.3054 32.2999V29.1232H20.241V32.3H20.2409ZM39.7591 29.1232H42.6947V32.3L41.5271 31.8762C41.3329 31.8056 41.12 31.8057 40.9261 31.8762L39.7591 32.2999V29.1232ZM48.5359 42.9789H33.9177V29.1232H37.9978V33.5565C38.0146 34.1031 38.5344 34.6032 39.1789 34.3843L41.2266 33.6408L43.2747 34.3843C43.7629 34.5789 44.4684 34.1903 44.4558 33.5565V29.1232H48.5358V42.9789H48.5359Z" fill="#272727"/>
<path d="M29.9998 14.7024C31.6664 14.7024 33.0224 13.3449 33.0224 11.6763C33.0224 10.0078 31.6663 8.65027 29.9998 8.65027C28.333 8.65027 26.9771 10.0078 26.9771 11.6763C26.9771 13.345 28.333 14.7024 29.9998 14.7024ZM29.9998 10.4116C30.6953 10.4116 31.2612 10.9789 31.2612 11.6763C31.2612 12.3737 30.6953 12.9411 29.9998 12.9411C29.3043 12.9411 28.7383 12.3737 28.7383 11.6763C28.7383 10.979 29.3043 10.4116 29.9998 10.4116Z" fill="#263A93"/>
<path d="M24.6259 25.3171C26.8406 27.5872 29.8953 24.5516 28.0758 22.3458L24.9844 18.7495L26.5328 16.9482C27.5283 17.607 28.7198 17.9918 29.9998 17.9918C31.2797 17.9918 32.4712 17.607 33.4667 16.9482L35.0151 18.7495L31.9237 22.3458C30.0093 24.8619 33.4489 27.4471 35.3736 25.3171L39.3326 20.7114C40.31 19.5745 40.31 17.9244 39.3323 16.7873L36.1463 13.0852C36.2499 12.6319 36.3065 12.1608 36.3065 11.6764C36.3065 9.75223 35.4415 8.02746 34.0818 6.86813V4.08703C34.0818 1.8334 32.2505 0 29.9998 0C27.749 0 25.9178 1.8334 25.9178 4.08703V6.86824C24.558 8.02746 23.6931 9.75234 23.6931 11.6764C23.6931 12.1608 23.7497 12.6319 23.8533 13.0852L20.667 16.7876C19.6898 17.9244 19.6898 19.5745 20.667 20.7113L24.6259 25.3171ZM35.4059 14.9248L37.9972 17.9357C38.3959 18.3996 38.3959 19.0992 37.9972 19.563L34.0381 24.1688C33.6218 24.6168 32.8361 24.1052 33.2594 23.4938L36.4557 19.7755C36.9668 19.1809 36.9668 18.3178 36.4557 17.7232L34.7865 15.7814C35.0156 15.514 35.2234 15.228 35.4059 14.9248ZM27.679 4.08703C27.679 2.80465 28.7201 1.76133 29.9998 1.76133C31.2795 1.76133 32.3205 2.80465 32.3205 4.08703V5.80617C30.942 5.23242 29.1078 5.21086 27.679 5.80617V4.08703ZM29.9998 7.12254C32.5061 7.12254 34.5453 9.16535 34.5453 11.6764C34.5453 14.1875 32.5062 16.2305 29.9998 16.2305C27.4934 16.2305 25.4543 14.1875 25.4543 11.6764C25.4543 9.16535 27.4934 7.12254 29.9998 7.12254ZM22.0021 17.936L24.5937 14.9248C24.7762 15.228 24.9841 15.5141 25.2132 15.7815L23.5441 17.7233C23.0329 18.3179 23.0329 19.181 23.5441 19.7756L26.7402 23.4939C27.1539 23.9336 26.453 24.6812 25.9615 24.1689L22.0025 19.5632C21.6037 19.0992 21.6037 18.3996 22.0021 17.936Z" fill="#263A93"/>
<path d="M13.6893 39.1113H16.2401C16.7264 39.1113 17.1207 38.717 17.1207 38.2306C17.1207 37.7443 16.7264 37.35 16.2401 37.35H13.6893C13.2029 37.35 12.8086 37.7442 12.8086 38.2306C12.8086 38.7171 13.2029 39.1113 13.6893 39.1113Z" fill="#263A93"/>
<path d="M13.6893 41.7306H18.7726C19.2589 41.7306 19.6533 41.3362 19.6533 40.8499C19.6533 40.3636 19.2589 39.9692 18.7726 39.9692H13.6893C13.2029 39.9692 12.8086 40.3636 12.8086 40.8499C12.8086 41.3362 13.2029 41.7306 13.6893 41.7306Z" fill="#263A93"/>
<path d="M36.1434 39.1113H38.6942C39.1806 39.1113 39.5748 38.717 39.5748 38.2306C39.5748 37.7443 39.1806 37.35 38.6942 37.35H36.1434C35.6569 37.35 35.2627 37.7442 35.2627 38.2306C35.2627 38.7171 35.6569 39.1113 36.1434 39.1113Z" fill="#263A93"/>
<path d="M41.2267 39.9694H36.1434C35.6569 39.9694 35.2627 40.3637 35.2627 40.85C35.2627 41.3364 35.6569 41.7307 36.1434 41.7307H41.2267C41.7132 41.7307 42.1074 41.3364 42.1074 40.85C42.1074 40.3637 41.7132 39.9694 41.2267 39.9694Z" fill="#263A93"/>
<path d="M9.56836 51.4474C9.56836 51.9328 9.96187 52.3263 10.4473 52.3263H49.5531C50.0386 52.3263 50.432 51.9328 50.432 51.4474C50.432 50.962 50.0386 50.5685 49.5531 50.5685H10.4473C9.96187 50.5685 9.56836 50.962 9.56836 51.4474Z" fill="#263A93"/>
<path d="M3.86279 51.4546C3.86279 54.2064 6.10154 56.4453 8.85334 56.4453H51.1461C53.8979 56.4453 56.1368 54.2066 56.1368 51.4512C56.1368 48.6994 53.898 46.4607 51.1461 46.4607H41.2046C40.7191 46.4607 40.3257 46.8542 40.3257 47.3396C40.3257 47.825 40.7191 48.2185 41.2046 48.2185H51.1461C52.9287 48.2185 54.3789 49.6687 54.3789 51.4548C54.3789 53.2373 52.9287 54.6876 51.1461 54.6876H8.85346C7.07092 54.6876 5.62072 53.2374 5.62072 51.4514C5.62072 49.6688 7.07092 48.2186 8.85346 48.2186H37.6891C38.1746 48.2186 38.568 47.8251 38.568 47.3397C38.568 46.8543 38.1746 46.4608 37.6891 46.4608H8.85346C6.10154 46.4606 3.86279 48.6993 3.86279 51.4546Z" fill="#272727"/>
</g>
<defs>
<clipPath id="clip0_8_355">
<rect width="60" height="60" fill="white"/>
</clipPath>
</defs>
</svg>
