<svg width="38" height="33" viewBox="0 0 38 33" fill="none" xmlns="http://www.w3.org/2000/svg">
<path d="M11.4196 18.7671L13.6571 16.5295C14.4562 15.7304 15.8147 16.0501 16.1344 17.0889C16.3741 17.8082 17.1733 18.2077 17.8925 18.0479C19.4907 17.6483 21.6483 15.5706 22.0479 13.8924C22.2876 13.1732 21.8082 12.3741 21.089 12.1344C20.0501 11.8147 19.7304 10.4562 20.5296 9.65709L22.7671 7.41954C23.4064 6.86015 24.3654 6.86015 24.9248 7.41954L26.4431 8.93787C27.9614 10.5361 26.2833 14.7715 22.5274 18.5274C18.7715 22.2832 14.5361 24.0413 12.9379 22.4431L11.4196 20.9247C10.8601 20.2854 10.8601 19.3265 11.4196 18.7671Z" fill="white"/>
<rect x="0.5" y="0.5" width="37" height="32" stroke="white"/>
</svg>
