<svg width="27" height="27" viewBox="0 0 27 27" fill="none" xmlns="http://www.w3.org/2000/svg">
<g clip-path="url(#clip0_12_290)">
<path d="M1.93197 11.2939C1.41632 11.3775 1.01743 11.7909 0.952307 12.3093C0.865722 13.0943 0.864851 13.8865 0.949775 14.6718C1.00896 15.1981 1.4103 15.6213 1.9328 15.7082L3.27067 15.9272C3.52752 17.0212 3.9611 18.0661 4.55429 19.0205L3.76681 20.1204C3.45301 20.5458 3.46061 21.1281 3.78532 21.5453C4.03594 21.8519 4.30263 22.1451 4.58417 22.4236C4.84235 22.6822 5.1278 22.9421 5.47048 23.23C5.88435 23.5483 6.45865 23.555 6.87983 23.2464L7.98517 22.4535C8.93864 23.0466 9.98243 23.4803 11.0755 23.7375L11.295 25.0775C11.3784 25.5933 11.7919 25.9924 12.3104 26.0576C12.55 26.0845 12.7935 26.1034 13.0386 26.1135H13.0743C13.2934 26.1133 13.5042 26.029 13.6629 25.878C13.828 25.7203 13.9212 25.5018 13.9207 25.2734V21.9039C13.9182 21.4537 13.5628 21.0846 13.113 21.0651C9.08869 20.855 5.93346 17.5308 5.93346 13.501C5.93346 9.47126 9.08869 6.14701 13.113 5.9369C13.5635 5.91714 13.9191 5.54697 13.9207 5.096V1.7282C13.9213 1.49962 13.828 1.28087 13.6625 1.12319C13.4973 0.961099 13.2718 0.875552 13.0406 0.887299C12.7959 0.89697 12.5533 0.914611 12.3044 0.939847C11.7862 1.00663 11.3748 1.40818 11.2953 1.92453L11.0763 3.26323C9.98322 3.52066 8.93943 3.9545 7.98596 4.54772L6.88062 3.75642C6.45554 3.44557 5.87568 3.45483 5.46077 3.77913C5.15594 4.02867 4.86418 4.29374 4.58666 4.57337C4.30063 4.85297 4.03138 5.14921 3.78025 5.46051C3.45944 5.87493 3.45123 6.45151 3.76008 6.87492L4.55263 7.98156C3.95994 8.9359 3.52693 9.9806 3.27067 11.0744L1.93197 11.2939ZM4.03129 11.5285C4.27573 10.3409 4.74468 9.21101 5.41291 8.19935C5.50867 8.05386 5.50481 7.86442 5.40324 7.72296L4.44421 6.38385C4.35555 6.26684 4.35298 6.10587 4.4379 5.98608C4.66835 5.70047 4.91561 5.4288 5.17831 5.17249C5.4335 4.91473 5.70151 4.66996 5.98136 4.43922C6.10181 4.34741 6.26875 4.34741 6.38921 4.43922L7.72625 5.39871C7.86787 5.50003 8.05731 5.50352 8.20263 5.40755C9.21342 4.73907 10.3427 4.26995 11.5297 4.02552C11.7003 3.99036 11.8316 3.85355 11.8597 3.68159L12.1242 2.06242C12.1432 1.91718 12.2547 1.80138 12.3992 1.77693C12.6216 1.75381 12.8469 1.73741 13.0799 1.72816L13.0706 5.09637C8.59434 5.32499 5.08293 9.02236 5.08542 13.5045C5.08787 17.9867 8.60334 21.6802 13.0799 21.9038L13.074 25.2733C12.8482 25.2641 12.6246 25.2464 12.4038 25.2216C12.2587 25.2004 12.145 25.086 12.1246 24.9407L11.8597 23.3207C11.8316 23.1488 11.7003 23.012 11.5297 22.9768C10.3427 22.7322 9.21342 22.263 8.20263 21.5944C8.05723 21.4985 7.86783 21.5022 7.72625 21.6036L6.38796 22.5639C6.27382 22.6527 6.11526 22.657 5.99651 22.5744C5.68748 22.3142 5.41964 22.0699 5.17831 21.829C4.92051 21.5742 4.6759 21.3065 4.44545 21.0267C4.35476 20.9056 4.35476 20.7392 4.44545 20.6181L5.40366 19.2802C5.5051 19.1387 5.50879 18.9492 5.41291 18.8038C4.74464 17.7924 4.27569 16.6625 4.03129 15.4751C3.99618 15.3046 3.85958 15.1734 3.68778 15.145L2.06902 14.8797C1.91835 14.8548 1.80267 14.7326 1.78607 14.5808C1.70733 13.8576 1.70816 13.1279 1.7886 12.405C1.80952 12.2597 1.92375 12.1457 2.06902 12.125L3.68732 11.8601C3.85978 11.8318 3.99672 11.6998 4.03129 11.5285Z" fill="#272727"/>
<path d="M24.8526 12.2394C24.32 12.2416 23.8462 12.5781 23.6686 13.0803H13.9209V11.8189H20.6481C21.3447 11.8189 21.9094 11.2542 21.9094 10.5576V8.37796C22.4886 8.17321 22.836 7.58094 22.7322 6.97547C22.6283 6.37 22.1033 5.9274 21.489 5.9274C20.8746 5.9274 20.3497 6.37 20.2458 6.97547C20.1419 7.58094 20.4893 8.17321 21.0685 8.37796V10.5576C21.0685 10.7898 20.8803 10.978 20.648 10.978H13.9209V9.71666H18.5458C18.778 9.71666 18.9663 9.52843 18.9663 9.29619C18.9663 9.06396 18.778 8.87572 18.5458 8.87572H13.9209V8.03482H16.4436C17.1402 8.03482 17.705 7.47011 17.705 6.77345V4.17346C18.2842 3.96871 18.6316 3.37643 18.5277 2.77096C18.4238 2.16549 17.8988 1.7229 17.2845 1.7229C16.6702 1.7229 16.1452 2.16549 16.0413 2.77096C15.9374 3.37643 16.2848 3.96871 16.864 4.17346V6.77353C16.864 7.00573 16.6758 7.194 16.4436 7.194H13.8099C13.6652 6.92516 13.3765 6.76594 13.072 6.78702C9.52886 7.01145 6.77002 9.95056 6.77002 13.5008C6.77002 17.051 9.52886 19.9901 13.072 20.2145H13.1212C13.4084 20.2169 13.6734 20.0603 13.8099 19.8076H16.4436C16.6757 19.8076 16.864 19.9958 16.864 20.228V22.8281C16.2848 23.0329 15.9374 23.6251 16.0413 24.2306C16.1452 24.8361 16.6702 25.2787 17.2845 25.2787C17.8988 25.2787 18.4238 24.8361 18.5277 24.2306C18.6316 23.6251 18.2842 23.0329 17.705 22.8281V20.228C17.705 19.5314 17.1403 18.9667 16.4436 18.9667H13.9209V18.1258H18.5458C18.778 18.1258 18.9663 17.9375 18.9663 17.7053C18.9663 17.4731 18.778 17.2849 18.5458 17.2849H13.9209V16.0235H20.6481C20.8803 16.0235 21.0686 16.2118 21.0686 16.444V18.6236C20.4894 18.8283 20.142 19.4206 20.2459 20.026C20.3497 20.6315 20.8747 21.0741 21.489 21.0741C22.1034 21.0741 22.6283 20.6315 22.7322 20.026C22.8361 19.4206 22.4887 18.8283 21.9095 18.6236V16.444C21.9095 15.7473 21.3448 15.1826 20.6482 15.1826H13.9209V13.9212H23.6686C23.8834 14.5244 24.5167 14.8702 25.1404 14.725C25.764 14.5799 26.1794 13.9898 26.1058 13.3538C26.0321 12.7178 25.4929 12.2382 24.8526 12.2394ZM21.489 6.77353C21.7212 6.77353 21.9094 6.96177 21.9094 7.194C21.9094 7.42624 21.7212 7.61448 21.489 7.61448C21.2568 7.61448 21.0686 7.42624 21.0686 7.194C21.0686 6.96177 21.2568 6.77353 21.489 6.77353ZM17.2845 2.56903C17.5167 2.56903 17.705 2.75727 17.705 2.9895C17.705 3.22174 17.5167 3.40993 17.2845 3.40993C17.0523 3.40993 16.8641 3.22169 16.8641 2.9895C16.8641 2.75731 17.0523 2.56903 17.2845 2.56903ZM17.2845 24.4324C17.0523 24.4324 16.8641 24.2442 16.8641 24.012C16.8641 23.7797 17.0523 23.5915 17.2845 23.5915C17.5167 23.5915 17.705 23.7797 17.705 24.012C17.705 24.2442 17.5167 24.4324 17.2845 24.4324ZM21.489 20.2279C21.2568 20.2279 21.0686 20.0397 21.0686 19.8075C21.0686 19.5752 21.2568 19.387 21.489 19.387C21.7212 19.387 21.9094 19.5753 21.9094 19.8075C21.9094 20.0397 21.7212 20.2279 21.489 20.2279ZM7.61412 13.5007C7.61765 10.4144 10.0018 7.85352 13.08 7.62958V19.3719C10.0018 19.148 7.61765 16.5871 7.61412 13.5007ZM24.8526 13.9212C24.6204 13.9212 24.4321 13.7329 24.4321 13.5007C24.4321 13.2685 24.6204 13.0803 24.8526 13.0803C25.0848 13.0803 25.2731 13.2685 25.2731 13.5007C25.2731 13.7329 25.0848 13.9212 24.8526 13.9212Z" fill="#253685"/>
</g>
<defs>
<clipPath id="clip0_12_290">
<rect width="25.2273" height="25.2273" fill="white" transform="translate(0.88623 0.886353)"/>
</clipPath>
</defs>
</svg>
