<svg width="25" height="25" viewBox="0 0 25 25" fill="none" xmlns="http://www.w3.org/2000/svg">
<path d="M12.8809 15.498C12.8584 15.4727 12.8335 15.4507 12.8067 15.4308C12.7803 15.4115 12.752 15.3948 12.7227 15.3814C12.6929 15.368 12.6621 15.3578 12.6313 15.3508C12.5679 15.3368 12.5034 15.3368 12.4404 15.3508C12.4092 15.3578 12.3784 15.368 12.3491 15.3814C12.3193 15.3948 12.291 15.4115 12.2646 15.4308C12.2378 15.4507 12.2129 15.4727 12.1904 15.498C12.0996 15.5973 12.0474 15.7359 12.0474 15.8777C12.0474 15.9126 12.0508 15.9481 12.0571 15.9825C12.0635 16.0168 12.0728 16.0507 12.085 16.0829C12.0972 16.1151 12.1124 16.1468 12.1299 16.1758C12.1475 16.2054 12.168 16.2327 12.1905 16.2575C12.2129 16.2822 12.2378 16.3047 12.2647 16.3241C12.2911 16.3434 12.3194 16.36 12.3492 16.3735C12.3785 16.3869 12.4092 16.3971 12.4405 16.4041C12.4717 16.4111 12.504 16.4148 12.5357 16.4148C12.5674 16.4148 12.5997 16.4111 12.6313 16.4041C12.6621 16.3971 12.6929 16.3869 12.7227 16.3735C12.752 16.36 12.7803 16.3434 12.8067 16.3241C12.8335 16.3047 12.8584 16.2822 12.8809 16.2575C12.9717 16.1575 13.024 16.019 13.024 15.8777C13.024 15.7359 12.9718 15.5979 12.8809 15.498Z" fill="#263A93"/>
<path d="M22.5052 18.2478V10.4073C22.5052 10.1107 22.2865 9.87021 22.0169 9.87021H13.0239V7.83243C14.7076 7.57048 16.007 5.97564 16.007 4.05247C16.007 1.94695 14.4498 0.234009 12.5357 0.234009C10.6216 0.234009 9.06434 1.94695 9.06434 4.05247C9.06434 5.97564 10.3637 7.57042 12.0474 7.83243V9.87021H2.98305C2.71337 9.87021 2.49477 10.1107 2.49477 10.4073V18.2478C1.08144 18.505 0 19.8581 0 21.4844C0 23.2937 1.33818 24.7658 2.98305 24.7658C4.62792 24.7658 5.9661 23.2938 5.9661 21.4844C5.9661 19.8581 4.88466 18.5049 3.47133 18.2478V10.9444H12.0474V13.5023C12.0474 13.7989 12.266 14.0394 12.5357 14.0394C12.8053 14.0394 13.024 13.7989 13.024 13.5023V10.9444H21.5287V18.2478C20.1154 18.505 19.0339 19.8581 19.0339 21.4845C19.0339 23.2938 20.3721 24.7658 22.0169 24.7658C23.6618 24.7658 25 23.2938 25 21.4845C24.9999 19.8581 23.9185 18.505 22.5052 18.2478ZM4.98949 21.4844C4.98949 22.7015 4.0894 23.6916 2.983 23.6916C1.87661 23.6916 0.97656 22.7015 0.97656 21.4844C0.97656 20.2674 1.87666 19.2773 2.98305 19.2773C4.08944 19.2773 4.98949 20.2674 4.98949 21.4844ZM12.5357 6.79672C11.1601 6.79667 10.0409 5.56561 10.0409 4.05247C10.0409 2.53928 11.1601 1.30823 12.5357 1.30823C13.9113 1.30823 15.0305 2.53928 15.0305 4.05247C15.0305 5.56567 13.9113 6.79672 12.5357 6.79672ZM22.0169 23.6916C20.9106 23.6916 20.0104 22.7015 20.0104 21.4844C20.0104 20.2674 20.9105 19.2773 22.0169 19.2773C23.1233 19.2773 24.0234 20.2674 24.0234 21.4844C24.0234 22.7014 23.1232 23.6916 22.0169 23.6916Z" fill="#272727"/>
<path d="M12.5358 18.2031C10.8909 18.2031 9.55273 19.6751 9.55273 21.4845C9.55273 23.2938 10.8909 24.7659 12.5358 24.7659C14.1807 24.7659 15.5189 23.2939 15.5189 21.4845C15.5189 19.6751 14.1807 18.2031 12.5358 18.2031ZM12.5358 23.6916C11.4294 23.6916 10.5293 22.7015 10.5293 21.4844C10.5293 20.2674 11.4294 19.2773 12.5358 19.2773C13.6421 19.2773 14.5423 20.2674 14.5423 21.4844C14.5423 22.7015 13.6422 23.6916 12.5358 23.6916Z" fill="#263A93"/>
<ellipse cx="12.5" cy="4.01922" rx="1.34615" ry="1.48077" fill="#263A93"/>
</svg>
