<svg width="21" height="15" viewBox="0 0 21 15" fill="none" xmlns="http://www.w3.org/2000/svg">
<path d="M13.7803 7.58356L20.7879 12.0137V2.96637L13.7803 7.58356Z" fill="white"/>
<path d="M0 2.96637V12.0137L7.00763 7.58356L0 2.96637Z" fill="white"/>
<path d="M19.4874 0.331787H1.29924C0.650963 0.331787 0.136499 0.815072 0.0390625 1.43737L10.3933 8.25922L20.7476 1.43737C20.6501 0.815072 20.1357 0.331787 19.4874 0.331787Z" fill="white"/>
<path d="M12.5892 8.36849L10.7509 9.5793C10.6418 9.65075 10.5184 9.68583 10.3936 9.68583C10.2689 9.68583 10.1455 9.65075 10.0364 9.5793L8.19807 8.36719L0.0419922 13.5261C0.142027 14.1432 0.653893 14.6226 1.29957 14.6226H19.4877C20.1334 14.6226 20.6453 14.1432 20.7453 13.5261L12.5892 8.36849Z" fill="white"/>
</svg>
