<svg width="25" height="25" viewBox="0 0 25 25" fill="none" xmlns="http://www.w3.org/2000/svg">
<path d="M21.608 3.88298H24.5117C24.7814 3.88298 25 3.6644 25 3.3947V0.488281C25 0.218582 24.7814 0 24.5117 0H21.608C21.3383 0 21.1197 0.218582 21.1197 0.488281V1.45321H14.4402V0.488281C14.4402 0.218582 14.2216 0 13.9519 0H11.0481C10.7784 0 10.5598 0.218582 10.5598 0.488281V1.45321H3.88031V0.488281C3.88031 0.218582 3.66173 0 3.39203 0H0.488281C0.218582 0 0 0.218582 0 0.488281V3.3947C0 3.6644 0.218582 3.88298 0.488281 3.88298H3.39203C3.66173 3.88298 3.88031 3.6644 3.88031 3.3947V2.42977H7.9422C6.51188 3.07827 5.22232 4.0308 4.17156 5.23529C2.52399 7.12395 1.57146 9.51385 1.46141 12.0117H0.488281C0.218582 12.0117 0 12.2303 0 12.5V15.4064C0 15.6761 0.218582 15.8947 0.488281 15.8947H3.39203C3.66173 15.8947 3.88031 15.6761 3.88031 15.4064V12.5C3.88031 12.2303 3.66173 12.0117 3.39203 12.0117H2.43912C2.66418 7.41024 6.04916 3.49197 10.5598 2.61116V3.39489C10.5598 3.66459 10.7784 3.88317 11.0481 3.88317H13.9519C14.2216 3.88317 14.4402 3.66459 14.4402 3.39489V2.61116C18.9508 3.49197 22.3358 7.41024 22.5609 12.0117H21.608C21.3383 12.0117 21.1197 12.2303 21.1197 12.5V15.4064C21.1197 15.6761 21.3383 15.8947 21.608 15.8947H24.5117C24.7814 15.8947 25 15.6761 25 15.4064V12.5C25 12.2303 24.7814 12.0117 24.5117 12.0117H23.5386C23.4285 9.51385 22.476 7.12395 20.8284 5.23529C19.7777 4.0308 18.4881 3.07827 17.0578 2.42977H21.1197V3.39489C21.1197 3.6644 21.3383 3.88298 21.608 3.88298ZM2.90375 2.90642H0.976562V0.976562H2.90375V2.90642ZM2.90375 14.9181H0.976562V12.9883H2.90375V14.9181ZM24.0234 14.9181H22.0963V12.9883H24.0234V14.9181ZM13.4636 2.90642H11.5364V0.976562H13.4636V2.90642ZM22.0963 0.976562H24.0234V2.90642H22.0963V0.976562Z" fill="#253685"/>
<path d="M12.9277 5.37968C12.8419 5.22385 12.678 5.12695 12.5001 5.12695C12.3221 5.12695 12.1583 5.22385 12.0725 5.37968L10.0444 9.06162C9.9143 9.29794 10.0003 9.59492 10.2366 9.72481C10.4726 9.85489 10.7697 9.76906 10.8998 9.53274L12.0118 7.51381V11.1147C11.3339 11.3237 10.8399 11.956 10.8399 12.7016C10.8399 13.6169 11.5848 14.3618 12.5001 14.3618C13.4154 14.3618 14.1602 13.6169 14.1602 12.7016C14.1602 11.956 13.6662 11.3237 12.9884 11.1147V7.51381L16.3382 13.596C15.2377 14.7091 14.4875 16.1369 14.1961 17.6758H10.8041C10.5124 16.1369 9.76228 14.7091 8.66193 13.596L9.22155 12.5799C9.35163 12.3438 9.26561 12.0468 9.02948 11.9167C8.79335 11.7867 8.49618 11.8725 8.3661 12.1088L7.62605 13.4527C7.51733 13.6499 7.55777 13.8962 7.7239 14.0484C8.77542 15.0114 9.50555 16.287 9.80768 17.6758H9.35296C8.5452 17.6758 7.88812 18.3331 7.88812 19.1406C7.88812 19.7105 8.21523 20.2049 8.6915 20.447V24.5117C8.6915 24.7814 8.91008 25 9.17978 25C9.44948 25 9.66806 24.7814 9.66806 24.5117V20.6055H15.3321V24.5117C15.3321 24.7814 15.5507 25 15.8204 25C16.0901 25 16.3087 24.7814 16.3087 24.5117V20.447C16.7849 20.2049 17.1121 19.7104 17.1121 19.1406C17.1121 18.3329 16.455 17.6758 15.6472 17.6758H15.1925C15.4946 16.2868 16.2248 15.0114 17.2763 14.0482C17.4424 13.896 17.4828 13.6499 17.3741 13.4525L12.9277 5.37968ZM12.5001 13.3852C12.1232 13.3852 11.8165 13.0785 11.8165 12.7016C11.8165 12.3245 12.1232 12.018 12.5001 12.018C12.877 12.018 13.1837 12.3245 13.1837 12.7016C13.1837 13.0785 12.877 13.3852 12.5001 13.3852ZM16.1355 19.1406C16.1355 19.4099 15.9165 19.6289 15.6472 19.6289H9.35296C9.08365 19.6289 8.86468 19.4099 8.86468 19.1406C8.86468 18.8713 9.08365 18.6523 9.35296 18.6523H15.6472C15.9165 18.6523 16.1355 18.8713 16.1355 19.1406Z" fill="#272727"/>
<path d="M9.60059 11.3341C9.72914 11.3341 9.85503 11.2822 9.94582 11.1914C10.0366 11.1001 10.0889 10.9748 10.0889 10.8458C10.0889 10.7173 10.0366 10.592 9.94582 10.5006C9.85503 10.4098 9.72914 10.3575 9.60059 10.3575C9.47165 10.3575 9.34576 10.4098 9.25497 10.5006C9.16418 10.592 9.1123 10.7173 9.1123 10.8458C9.1123 10.9748 9.16418 11.1001 9.25497 11.1914C9.34576 11.2822 9.47165 11.3341 9.60059 11.3341Z" fill="black"/>
</svg>
