<svg width="25" height="25" viewBox="0 0 25 25" fill="none" xmlns="http://www.w3.org/2000/svg">
<path d="M4.39701 19.3335C4.04701 19.3335 3.71056 19.4208 3.41206 19.5848C1.83964 17.5692 0.976562 15.0652 0.976562 12.5C0.976562 6.14586 6.14586 0.976562 12.5 0.976562C13.2725 0.976562 14.0446 1.05343 14.7949 1.20506C15.0589 1.25847 15.3168 1.08757 15.3702 0.823212C15.4236 0.558853 15.2527 0.301361 14.9883 0.247765C14.1745 0.0833511 13.3373 0 12.5 0C9.16119 0 6.02207 1.30024 3.66116 3.66116C1.30024 6.02207 0 9.16119 0 12.5C0 15.3086 0.953674 18.0494 2.68993 20.2467C2.46639 20.5807 2.34623 20.9732 2.34623 21.3842C2.34623 21.932 2.55966 22.447 2.94704 22.8342C3.33424 23.2216 3.84922 23.435 4.39701 23.435C4.9448 23.435 5.45979 23.2216 5.84717 22.8342C6.23455 22.447 6.44779 21.9318 6.44779 21.384C6.44779 20.8364 6.23455 20.3213 5.84717 19.9341C5.45979 19.5467 4.9448 19.3335 4.39701 19.3335ZM5.15652 22.1437C4.95377 22.3467 4.68388 22.4585 4.39701 22.4585C4.11015 22.4585 3.84045 22.3467 3.6375 22.1437C3.43456 21.9408 3.32279 21.6711 3.32279 21.3842C3.32279 21.0972 3.43456 20.8275 3.6375 20.6245C3.84026 20.4216 4.11015 20.31 4.39701 20.31C4.68388 20.31 4.95358 20.4218 5.15652 20.6245C5.35946 20.8275 5.47123 21.0972 5.47123 21.3842C5.47123 21.6711 5.35946 21.9408 5.15652 22.1437Z" fill="#263A93"/>
<path d="M22.3095 4.75269C22.8403 3.95638 22.7551 2.86766 22.053 2.16557C21.6656 1.77837 21.1506 1.56494 20.6028 1.56494C20.055 1.56494 19.54 1.77837 19.1526 2.16557C18.7653 2.55295 18.552 3.06793 18.552 3.61572C18.552 4.16351 18.7653 4.6785 19.1526 5.06588C19.54 5.45326 20.055 5.6665 20.6028 5.6665C20.9528 5.6665 21.2893 5.57915 21.5878 5.41512C23.1602 7.43099 24.0233 9.93477 24.0233 12.5C24.0233 18.8541 18.854 24.0234 12.4998 24.0234C11.735 24.0234 10.9701 23.9481 10.2268 23.7993C9.96246 23.7465 9.70516 23.9179 9.65214 24.1823C9.5993 24.4468 9.77078 24.7039 10.0351 24.757C10.8414 24.9181 11.6707 25 12.4998 25C15.8386 25 18.9777 23.6997 21.3387 21.3388C23.6996 18.9779 24.9998 15.8388 24.9998 12.5C24.9998 9.6912 24.046 6.95015 22.3095 4.75269ZM19.8433 4.37542C19.6404 4.17248 19.5286 3.90278 19.5286 3.61572C19.5286 3.32886 19.6404 3.05916 19.8433 2.85622C20.046 2.65327 20.3159 2.5415 20.6028 2.5415C20.8897 2.5415 21.1596 2.65327 21.3625 2.85622C21.7812 3.27507 21.7812 3.95657 21.3625 4.37542C21.1596 4.57817 20.8897 4.68994 20.6028 4.68994C20.3157 4.68994 20.046 4.57817 19.8433 4.37542Z" fill="#272727"/>
<path d="M10.4849 20.8984C10.4849 21.1681 10.7036 21.3867 10.9731 21.3867H14.0262C14.2959 21.3867 14.5145 21.1681 14.5145 20.8984V19.9518C15.1565 19.779 15.7703 19.5246 16.3471 19.1923L17.0154 19.8606C17.107 19.9522 17.2312 20.0037 17.3609 20.0037C17.4902 20.0037 17.6145 19.9522 17.7061 19.8605L19.8641 17.701C20.0546 17.5102 20.0546 17.201 19.8641 17.0105L19.1965 16.3429C19.5287 15.7661 19.7832 15.1524 19.956 14.5103H20.899C21.1687 14.5103 21.3873 14.2918 21.3873 14.0221V10.969C21.3873 10.6993 21.1687 10.4807 20.899 10.4807H19.9558C19.783 9.83887 19.5287 9.22508 19.1965 8.6483L19.8604 7.98435C19.952 7.8928 20.0035 7.76844 20.0035 7.63893C20.0033 7.50942 19.9518 7.38506 19.8602 7.29351L17.7006 5.13554C17.51 4.94499 17.2008 4.94499 17.0101 5.13573L16.3471 5.79891C15.7703 5.46665 15.1565 5.21221 14.5145 5.03941V4.10156C14.5145 3.83186 14.2959 3.61328 14.0262 3.61328H10.9731C10.7036 3.61328 10.4849 3.83186 10.4849 4.10156V5.0396C9.84304 5.21221 9.22925 5.46665 8.65247 5.79891L7.98929 5.13573C7.79874 4.94518 7.48956 4.94499 7.29883 5.13554L5.13933 7.2937C5.04758 7.38525 4.99609 7.50942 4.99609 7.63893C4.99609 7.76844 5.04758 7.8928 5.13914 7.98435L5.80309 8.6483C5.47083 9.22508 5.21639 9.83868 5.04358 10.4807H4.1023C3.8326 10.4807 3.61402 10.6993 3.61402 10.9688L3.61231 14.0219C3.61211 14.1514 3.66361 14.2757 3.75517 14.3673C3.84672 14.4588 3.97089 14.5103 4.10059 14.5103H5.04358C5.21639 15.1524 5.47083 15.7661 5.80309 16.3429L5.13551 17.0105C4.94497 17.201 4.94478 17.5102 5.13551 17.701L7.29349 19.8605C7.38504 19.952 7.50921 20.0037 7.63872 20.0037H7.63891C7.76842 20.0037 7.89259 19.9522 7.98414 19.8606L8.65228 19.1923C9.22925 19.5246 9.84304 19.779 10.4849 19.9518V20.8984ZM8.84378 18.1654C8.65057 18.0405 8.39632 18.0676 8.23343 18.2302L7.63891 18.8248L6.1712 17.3559L6.76515 16.7618C6.92785 16.5991 6.95493 16.3448 6.83 16.1516C6.38731 15.4665 6.07603 14.7156 5.90513 13.9194C5.85668 13.6946 5.65794 13.5338 5.42772 13.5338H4.58906L4.5902 11.4573H5.42772C5.65794 11.4573 5.85668 11.2967 5.90513 11.0716C6.07603 10.2757 6.38731 9.52473 6.83 8.83961C6.95493 8.64639 6.92785 8.39214 6.76515 8.22945L6.17502 7.63912L7.64387 6.17142L8.23343 6.76117C8.39632 6.92387 8.65037 6.95076 8.84378 6.82602C9.52871 6.38332 10.2796 6.07204 11.0758 5.90115C11.3006 5.8527 11.4614 5.65376 11.4614 5.42374V4.58984H13.538V5.42355C13.538 5.65376 13.6986 5.8527 13.9236 5.90096C14.7196 6.07204 15.4707 6.38313 16.1556 6.82583C16.3488 6.95076 16.6031 6.92387 16.7658 6.76098L17.3555 6.17142L18.8244 7.63912L18.2342 8.22926C18.0713 8.39214 18.0444 8.64639 18.1694 8.83961C18.6121 9.52473 18.9232 10.2757 19.0942 11.0716C19.1425 11.2967 19.3414 11.4573 19.5717 11.4573H20.4107V13.5338H19.5717C19.3414 13.5338 19.1427 13.6946 19.0942 13.9194C18.9234 14.7154 18.6121 15.4665 18.1694 16.1514C18.0444 16.3448 18.0715 16.5991 18.2342 16.7618L18.8282 17.3557L17.3605 18.8246L16.766 18.2302C16.6031 18.0674 16.3488 18.0405 16.1556 18.1654C15.4705 18.6081 14.7196 18.9192 13.9236 19.0903C13.6986 19.1387 13.538 19.3375 13.538 19.5677V20.4102H11.4614V19.5677C11.4614 19.3377 11.3006 19.1387 11.0758 19.0903C10.2798 18.9194 9.5289 18.6081 8.84378 18.1654Z" fill="#272727"/>
<path d="M16.5346 12.4999C16.5346 10.2752 14.7247 8.46533 12.4999 8.46533C10.2752 8.46533 8.46533 10.2752 8.46533 12.4999C8.46533 14.7247 10.2752 16.5346 12.4999 16.5346C14.7247 16.5346 16.5346 14.7247 16.5346 12.4999ZM9.44189 12.4999C9.44189 10.8137 10.8137 9.44189 12.4999 9.44189C14.1862 9.44189 15.558 10.8139 15.558 12.4999C15.558 14.186 14.1862 15.558 12.4999 15.558C10.8137 15.558 9.44189 14.1862 9.44189 12.4999Z" fill="#272727"/>
<path d="M16.9961 1.84664C17.1246 1.84664 17.2505 1.79438 17.3413 1.70359C17.4321 1.61223 17.4844 1.48634 17.4844 1.35779C17.4844 1.23 17.4323 1.10392 17.3413 1.01256C17.2505 0.921768 17.1246 0.869507 16.9961 0.869507C16.8672 0.869507 16.7418 0.921768 16.6511 1.01256C16.5601 1.10392 16.5078 1.22942 16.5078 1.35779C16.5078 1.48672 16.5601 1.61223 16.6511 1.70359C16.7418 1.79438 16.8672 1.84664 16.9961 1.84664Z" fill="#263A93"/>
<path d="M8.02539 23.1621C7.89703 23.1621 7.77095 23.2144 7.68016 23.3052C7.58937 23.396 7.53711 23.522 7.53711 23.6504C7.53711 23.7793 7.58937 23.9048 7.68016 23.9956C7.77095 24.0864 7.89703 24.1387 8.02539 24.1387C8.15376 24.1387 8.27983 24.0864 8.37062 23.9956C8.46141 23.9048 8.51367 23.7788 8.51367 23.6504C8.51367 23.522 8.46141 23.396 8.37062 23.3052C8.27983 23.2144 8.15376 23.1621 8.02539 23.1621Z" fill="#272727"/>
</svg>
