<svg width="134" height="35" viewBox="0 0 134 35" fill="none" xmlns="http://www.w3.org/2000/svg">
<g clip-path="url(#clip0_12_258)">
<path d="M69.7065 28.1946V6.43726H74.7007V14.8663H77.0398L82.4765 6.43726H88.0502L80.896 16.9419L88.7245 28.1841H82.624L76.8817 19.4179H74.7007V28.1841H69.7065V28.1946Z" fill="white"/>
<path d="M90.9692 28.1946V6.43726H107.079V10.7571H95.995V15.1086H101.358C103.834 15.1086 105.688 15.6881 106.953 16.8365C108.207 17.9955 108.839 19.5443 108.839 21.5041C108.839 22.8527 108.565 24.0223 108.027 25.0232C107.49 26.0241 106.689 26.8038 105.625 27.3517C104.561 27.8996 103.233 28.1735 101.642 28.1735H90.9692V28.1946ZM95.995 23.8747H100.926C101.6 23.8747 102.138 23.7483 102.538 23.506C102.938 23.2636 103.223 22.9476 103.391 22.5683C103.56 22.1889 103.655 21.7886 103.655 21.3566C103.655 20.9457 103.581 20.5558 103.423 20.1976C103.265 19.8288 102.991 19.5338 102.58 19.3231C102.169 19.1124 101.6 18.9965 100.863 18.9965H95.995V23.8747Z" fill="white"/>
<path d="M128.973 28.1946V15.235L124.284 24.665H121.524L116.835 15.235V28.1946H111.809V6.43726H117.267L122.904 17.8059L128.572 6.43726H133.998V28.1841H128.973V28.1946Z" fill="white"/>
<path d="M3.58132 7.12231C3.58132 7.12231 1.75855 11.4843 5.74125 17.4794C8.74408 21.9995 14.6338 24.5387 14.6338 24.5387H1.47407C1.47407 24.5387 -0.274951 21.3041 0.0411369 16.2572C0.367761 10.8943 3.58132 7.12231 3.58132 7.12231Z" fill="#AFAFAF"/>
<path d="M14.8867 34.0322C14.8867 34.0322 19.5753 33.4422 22.7994 27.0046C25.2228 22.1579 24.4958 15.7834 24.4958 15.7834L31.0493 27.1942C31.0493 27.1942 29.1212 30.3235 24.5801 32.5677C19.7545 34.9383 14.8867 34.0322 14.8867 34.0322Z" fill="#AFAFAF"/>
<path d="M33.2303 10.9997C33.2303 10.9997 30.3644 7.23822 23.1787 7.68075C17.7631 8.01791 12.6108 11.832 12.6108 11.832L19.196 0.452881C19.196 0.452881 22.8731 0.558243 27.0876 3.36089C31.5761 6.33211 33.2303 10.9997 33.2303 10.9997Z" fill="#AFAFAF"/>
<path d="M55.841 6.14258C49.5719 6.14258 44.4829 11.2316 44.4829 17.5007C44.4829 23.7697 49.5719 28.8693 55.841 28.8693C62.11 28.8693 67.1991 23.7803 67.1991 17.5112C67.1991 11.2421 62.1206 6.14258 55.841 6.14258ZM55.841 23.8751C52.3219 23.8751 49.4666 21.0198 49.4666 17.5007C49.4666 13.9815 52.3219 11.1262 55.841 11.1262C59.3601 11.1262 62.2154 13.9815 62.2154 17.5007C62.2154 21.0198 59.3706 23.8751 55.841 23.8751Z" fill="white"/>
<path d="M15.3928 0.484863C10.5672 1.01168 6.34218 3.52984 3.55008 7.19645C3.34989 7.75487 2.05393 11.8535 5.64679 17.3534L15.3928 0.484863Z" fill="white"/>
<path d="M33.1565 10.9153C32.6929 10.3674 29.7744 7.32246 23.3262 7.67015L33.0511 24.5492C35.0109 20.1029 34.9477 15.1825 33.1565 10.9153Z" fill="white"/>
<path d="M15.1086 34.0424C14.9822 34.0213 14.919 34.0108 14.919 34.0108C14.919 34.0108 19.5339 33.4208 22.7474 27.1306H3.25537C6.1423 31.0922 10.4832 33.4945 15.1086 34.0424Z" fill="white"/>
</g>
<defs>
<clipPath id="clip0_12_258">
<rect width="134" height="33.7476" fill="white" transform="translate(0 0.452148)"/>
</clipPath>
</defs>
</svg>
