<svg width="30" height="30" viewBox="0 0 30 30" fill="none" xmlns="http://www.w3.org/2000/svg">
<path d="M0.78496 22.0174L4.97163 17.8307C6.46687 16.3355 9.00878 16.9336 9.60687 18.8774C10.0554 20.2232 11.5507 20.9708 12.8964 20.6717C15.8869 19.9241 19.924 16.0364 20.6716 12.8964C21.1202 11.5507 20.2231 10.0554 18.8774 9.60691C16.9335 9.00882 16.3354 6.46691 17.8307 4.97167L22.0174 0.785001C23.2135 -0.261667 25.0078 -0.261667 26.0545 0.785001L28.8955 3.62596C31.7364 6.61643 28.5964 14.5412 21.5688 21.5688C14.5412 28.5965 6.61639 31.886 3.62592 28.8955L0.78496 26.0545C-0.261766 24.8584 -0.261766 23.0641 0.78496 22.0174Z" fill="white"/>
</svg>
