<svg width="16" height="17" viewBox="0 0 16 17" fill="none" xmlns="http://www.w3.org/2000/svg">
<path d="M0.419564 11.7671L2.65711 9.52955C3.45623 8.73042 4.81474 9.0501 5.13439 10.0889C5.37413 10.8082 6.17325 11.2077 6.89246 11.0479C8.49071 10.6483 10.6483 8.5706 11.0479 6.89244C11.2876 6.1732 10.8082 5.37407 10.089 5.13437C9.0501 4.81472 8.73045 3.45621 9.52957 2.65709L11.7671 0.41954C12.4064 -0.139847 13.3654 -0.139847 13.9248 0.41954L15.4431 1.93787C16.9614 3.53612 15.2833 7.77148 11.5274 11.5274C7.7715 15.2832 3.53615 17.0413 1.9379 15.4431L0.419564 13.9247C-0.139854 13.2854 -0.139854 12.3265 0.419564 11.7671Z" fill="white"/>
</svg>
