<svg width="31" height="21" viewBox="0 0 31 21" fill="none" xmlns="http://www.w3.org/2000/svg">
<path d="M20.084 10.3074L30.0445 16.6043V3.74463L20.084 10.3074Z" fill="white"/>
<path d="M0.498047 3.74463V16.6043L10.4586 10.3074L0.498047 3.74463Z" fill="white"/>
<path d="M28.1972 0H2.34491C1.42346 0 0.692206 0.686933 0.553711 1.57145L15.2711 11.2679L29.9884 1.57145C29.8499 0.686933 29.1187 0 28.1972 0Z" fill="white"/>
<path d="M18.392 11.423L15.7791 13.144C15.624 13.2456 15.4486 13.2954 15.2713 13.2954C15.094 13.2954 14.9186 13.2456 14.7635 13.144L12.1505 11.4211L0.557617 18.754C0.699805 19.6311 1.42736 20.3125 2.34512 20.3125H28.1974C29.1152 20.3125 29.8428 19.6311 29.9849 18.754L18.392 11.423Z" fill="white"/>
</svg>
