<svg width="323" height="282" viewBox="0 0 323 282" fill="none" xmlns="http://www.w3.org/2000/svg">
<g filter="url(#filter0_f_2_85)">
<path d="M229.339 107.265C228.603 101.122 222.813 95.2313 216.756 94.4421C179.819 89.8526 142.469 89.8526 105.544 94.4421C99.4815 95.2296 93.6922 101.122 92.9557 107.265C90.3481 129.78 90.3481 151.61 92.9557 174.119C93.6922 180.262 99.4815 186.158 105.544 186.942C142.469 191.532 179.821 191.532 216.756 186.942C222.813 186.16 228.603 180.262 229.339 174.119C231.947 151.612 231.947 129.78 229.339 107.265ZM149.455 164.079V117.312L184.53 140.697L149.455 164.079Z" fill="#263A93"/>
</g>
<path d="M229.339 107.265C228.603 101.122 222.813 95.2313 216.756 94.4421C179.819 89.8526 142.469 89.8526 105.544 94.4421C99.4815 95.2296 93.6922 101.122 92.9557 107.265C90.3481 129.78 90.3481 151.61 92.9557 174.119C93.6922 180.262 99.4815 186.158 105.544 186.942C142.469 191.532 179.821 191.532 216.756 186.942C222.813 186.16 228.603 180.262 229.339 174.119C231.947 151.612 231.947 129.78 229.339 107.265ZM149.455 164.079V117.312L184.53 140.697L149.455 164.079Z" fill="white"/>
<defs>
<filter id="filter0_f_2_85" x="0" y="0" width="322.295" height="281.384" filterUnits="userSpaceOnUse" color-interpolation-filters="sRGB">
<feFlood flood-opacity="0" result="BackgroundImageFix"/>
<feBlend mode="normal" in="SourceGraphic" in2="BackgroundImageFix" result="shape"/>
<feGaussianBlur stdDeviation="45.5" result="effect1_foregroundBlur_2_85"/>
</filter>
</defs>
</svg>
