<svg width="179" height="157" viewBox="0 0 179 157" fill="none" xmlns="http://www.w3.org/2000/svg">
<g filter="url(#filter0_f_12_421)">
<path d="M127.558 60.0013C127.15 56.6016 123.947 53.3416 120.594 52.9049C100.153 50.365 79.4831 50.365 59.0487 52.9049C55.6937 53.3407 52.4899 56.6016 52.0823 60.0013C50.6392 72.461 50.6392 84.5419 52.0823 96.9987C52.4899 100.398 55.6937 103.661 59.0487 104.095C79.4831 106.635 100.154 106.635 120.594 104.095C123.947 103.662 127.15 100.398 127.558 96.9987C129.001 84.543 129.001 72.461 127.558 60.0013ZM83.3497 91.4425V65.5615L102.76 78.5025L83.3497 91.4425Z" fill="#263A93"/>
</g>
<path d="M127.558 60.0013C127.15 56.6016 123.947 53.3416 120.594 52.9049C100.153 50.365 79.4831 50.365 59.0487 52.9049C55.6937 53.3407 52.4899 56.6016 52.0823 60.0013C50.6392 72.461 50.6392 84.5419 52.0823 96.9987C52.4899 100.398 55.6937 103.661 59.0487 104.095C79.4831 106.635 100.154 106.635 120.594 104.095C123.947 103.662 127.15 100.398 127.558 96.9987C129.001 84.543 129.001 72.461 127.558 60.0013ZM83.3497 91.4425V65.5615L102.76 78.5025L83.3497 91.4425Z" fill="white"/>
<defs>
<filter id="filter0_f_12_421" x="0.639889" y="0.639889" width="178.361" height="155.72" filterUnits="userSpaceOnUse" color-interpolation-filters="sRGB">
<feFlood flood-opacity="0" result="BackgroundImageFix"/>
<feBlend mode="normal" in="SourceGraphic" in2="BackgroundImageFix" result="shape"/>
<feGaussianBlur stdDeviation="25.1801" result="effect1_foregroundBlur_12_421"/>
</filter>
</defs>
</svg>
