<svg width="25" height="25" viewBox="0 0 25 25" fill="none" xmlns="http://www.w3.org/2000/svg">
<path d="M24.7942 7.1406L12.7109 0.0572788C12.5838 -0.0168907 12.4275 -0.019381 12.2988 0.0518589L0.21543 6.71853C0.0825197 6.79143 0 6.93142 0 7.08308V24.583C0 24.8134 0.18667 24.9996 0.416651 24.9996H2.50001C2.72999 24.9996 2.91666 24.8134 2.91666 24.583V9.99976H22.0833V24.583C22.0833 24.8135 22.2696 24.9997 22.5 24.9997H24.5833C24.8138 24.9997 25 24.8135 25 24.583V7.49977C25 7.35183 24.9217 7.21516 24.7942 7.1406ZM24.1667 24.1663H22.9167V9.58307C22.9167 9.35309 22.7305 9.16642 22.5 9.16642H2.50001C2.27002 9.16642 2.08335 9.35309 2.08335 9.58307V24.1663H0.833351V7.32892L12.4938 0.895605L24.1667 7.73849V24.1663Z" fill="#272727"/>
<path d="M20.8334 19.1664H15.8332C15.6027 19.1664 15.4165 19.3526 15.4165 19.5831V24.5833C15.4165 24.8137 15.6027 25 15.8332 25H20.8334C21.0639 25 21.2501 24.8137 21.2501 24.5833V19.5831C21.2501 19.3526 21.0639 19.1664 20.8334 19.1664ZM20.4167 24.1666H16.2498V19.9998H20.4167V24.1666Z" fill="#272727"/>
<path d="M18.7488 19.583V20.8331H17.9154V19.583H17.082V21.2497C17.082 21.4802 17.2683 21.6664 17.4987 21.6664H19.1654C19.3959 21.6664 19.5821 21.4802 19.5821 21.2497V19.583H18.7488Z" fill="#253685"/>
<path d="M15.8334 19.1664H10.8332C10.6032 19.1664 10.4165 19.3526 10.4165 19.5831V24.5833C10.4165 24.8137 10.6032 25 10.8332 25H15.8334C16.0639 25 16.2501 24.8137 16.2501 24.5833V19.5831C16.2501 19.3526 16.0639 19.1664 15.8334 19.1664ZM15.4167 24.1666H11.2498V19.9998H15.4167V24.1666Z" fill="#253685"/>
<path d="M13.7493 19.583V20.8331H12.9159V19.583H12.0825V21.2497C12.0825 21.4802 12.2692 21.6664 12.4992 21.6664H14.1659C14.3964 21.6664 14.5826 21.4802 14.5826 21.2497V19.583H13.7493Z" fill="#253685"/>
<path d="M20.8334 14.1663H15.8332C15.6027 14.1663 15.4165 14.3525 15.4165 14.5829V19.5832C15.4165 19.8136 15.6027 19.9998 15.8332 19.9998H20.8334C21.0639 19.9998 21.2501 19.8136 21.2501 19.5832V14.5829C21.2501 14.3525 21.0639 14.1663 20.8334 14.1663ZM20.4167 19.1665H16.2498V14.9996H20.4167V19.1665Z" fill="#253685"/>
<path d="M18.7488 14.5831V15.8332H17.9154V14.5831H17.082V16.2499C17.082 16.4803 17.2683 16.6665 17.4987 16.6665H19.1654C19.3959 16.6665 19.5821 16.4803 19.5821 16.2499V14.5831H18.7488Z" fill="#253685"/>
<path d="M22.5005 12.4995H2.50049V13.3329H22.5005V12.4995Z" fill="#272727"/>
<path d="M22.5005 10.8331H2.50049V11.6665H22.5005V10.8331Z" fill="#272727"/>
<path d="M14.5831 5.83289H10.4162C10.1862 5.83289 9.99951 6.01956 9.99951 6.24956V7.91628C9.99951 8.14628 10.1862 8.33295 10.4162 8.33295H14.5831C14.8135 8.33295 14.9997 8.14628 14.9997 7.91628V6.24956C14.9997 6.01956 14.8135 5.83289 14.5831 5.83289ZM14.1663 7.49966H10.8328V6.66627H14.1663V7.49966Z" fill="#253685"/>
</svg>
