<svg width="134" height="34" viewBox="0 0 134 34" fill="none" xmlns="http://www.w3.org/2000/svg">
<g clip-path="url(#clip0_12_1048)">
<path d="M69.7065 27.7425V5.98511H74.7007V14.4141H77.0398L82.4765 5.98511H88.0502L80.896 16.4897L88.7245 27.7319H82.624L76.8817 18.9658H74.7007V27.7319H69.7065V27.7425Z" fill="white"/>
<path d="M90.9692 27.7425V5.98511H107.079V10.305H95.995V14.6564H101.358C103.834 14.6564 105.688 15.2359 106.953 16.3844C108.207 17.5434 108.839 19.0922 108.839 21.0519C108.839 22.4006 108.565 23.5701 108.027 24.571C107.49 25.572 106.689 26.3517 105.625 26.8996C104.561 27.4474 103.233 27.7214 101.642 27.7214H90.9692V27.7425ZM95.995 23.4226H100.926C101.6 23.4226 102.138 23.2962 102.538 23.0538C102.938 22.8115 103.223 22.4954 103.391 22.1161C103.56 21.7368 103.655 21.3364 103.655 20.9044C103.655 20.4935 103.581 20.1037 103.423 19.7454C103.265 19.3767 102.991 19.0817 102.58 18.8709C102.169 18.6602 101.6 18.5443 100.863 18.5443H95.995V23.4226Z" fill="white"/>
<path d="M128.973 27.7425V14.7829L124.284 24.2128H121.524L116.835 14.7829V27.7425H111.809V5.98511H117.267L122.904 17.3537L128.572 5.98511H133.998V27.7319H128.973V27.7425Z" fill="white"/>
<path d="M3.58132 6.67017C3.58132 6.67017 1.75855 11.0322 5.74125 17.0273C8.74408 21.5473 14.6338 24.0866 14.6338 24.0866H1.47407C1.47407 24.0866 -0.274951 20.852 0.0411369 15.8051C0.367761 10.4421 3.58132 6.67017 3.58132 6.67017Z" fill="#AFAFAF"/>
<path d="M14.8867 33.5801C14.8867 33.5801 19.5753 32.9901 22.7994 26.5524C25.2228 21.7057 24.4958 15.3313 24.4958 15.3313L31.0493 26.7421C31.0493 26.7421 29.1212 29.8713 24.5801 32.1155C19.7545 34.4862 14.8867 33.5801 14.8867 33.5801Z" fill="#AFAFAF"/>
<path d="M33.2303 10.5475C33.2303 10.5475 30.3644 6.78608 23.1787 7.2286C17.7631 7.56576 12.6108 11.3799 12.6108 11.3799L19.196 0.000732422C19.196 0.000732422 22.8731 0.106095 27.0876 2.90874C31.5761 5.87996 33.2303 10.5475 33.2303 10.5475Z" fill="#AFAFAF"/>
<path d="M55.841 5.69043C49.5719 5.69043 44.4829 10.7794 44.4829 17.0485C44.4829 23.3176 49.5719 28.4171 55.841 28.4171C62.11 28.4171 67.1991 23.3281 67.1991 17.059C67.1991 10.79 62.1206 5.69043 55.841 5.69043ZM55.841 23.4229C52.3219 23.4229 49.4666 20.5676 49.4666 17.0485C49.4666 13.5294 52.3219 10.6741 55.841 10.6741C59.3601 10.6741 62.2154 13.5294 62.2154 17.0485C62.2154 20.5676 59.3706 23.4229 55.841 23.4229Z" fill="white"/>
<path d="M15.3928 0.0327148C10.5672 0.559527 6.34218 3.07769 3.55008 6.7443C3.34989 7.30273 2.05393 11.4013 5.64679 16.9012L15.3928 0.0327148Z" fill="white"/>
<path d="M33.1565 10.4632C32.6929 9.91529 29.7744 6.87031 23.3262 7.21801L33.0511 24.0971C35.0109 19.6508 34.9477 14.7304 33.1565 10.4632Z" fill="white"/>
<path d="M15.1086 33.5902C14.9822 33.5692 14.919 33.5586 14.919 33.5586C14.919 33.5586 19.5339 32.9686 22.7474 26.6785H3.25537C6.1423 30.6401 10.4832 33.0424 15.1086 33.5902Z" fill="white"/>
</g>
<defs>
<clipPath id="clip0_12_1048">
<rect width="134" height="33.7476" fill="white"/>
</clipPath>
</defs>
</svg>
