<svg width="286" height="73" viewBox="0 0 286 73" fill="none" xmlns="http://www.w3.org/2000/svg">
<g clip-path="url(#clip0_2_640)">
<path d="M148.777 59.2103V12.7729H159.437V30.7632H164.429L176.033 12.7729H187.929L172.659 35.1933L189.368 59.1878H176.347L164.092 40.4779H159.437V59.1878H148.777V59.2103Z" fill="white"/>
<path d="M194.16 59.2103V12.7729H228.544V21.993H204.887V31.2804H216.333C221.618 31.2804 225.576 32.5172 228.274 34.9684C230.95 37.4421 232.299 40.7478 232.299 44.9305C232.299 47.809 231.715 50.3051 230.568 52.4414C229.421 54.5778 227.712 56.2419 225.441 57.4113C223.169 58.5806 220.336 59.1653 216.94 59.1653H194.16V59.2103ZM204.887 49.9903H215.411C216.85 49.9903 217.997 49.7204 218.852 49.2032C219.706 48.686 220.313 48.0113 220.673 47.2018C221.033 46.3922 221.235 45.5377 221.235 44.6157C221.235 43.7387 221.078 42.9066 220.741 42.142C220.403 41.355 219.819 40.7253 218.942 40.2755C218.065 39.8258 216.85 39.5784 215.276 39.5784H204.887V49.9903Z" fill="white"/>
<path d="M275.273 59.2103V31.5503L265.266 51.6769H259.374L249.367 31.5503V59.2103H238.641V12.7729H250.289L262.32 37.0373L274.419 12.7729H286V59.1878H275.273V59.2103Z" fill="white"/>
<path d="M7.64526 14.2348C7.64526 14.2348 3.75487 23.5447 12.2553 36.3403C18.6643 45.9876 31.235 51.4071 31.235 51.4071H3.1477C3.1477 51.4071 -0.585275 44.5034 0.0893592 33.7317C0.786481 22.2854 7.64526 14.2348 7.64526 14.2348Z" fill="#AFAFAF"/>
<path d="M31.7734 71.6686C31.7734 71.6686 41.7805 70.4093 48.6618 56.6692C53.834 46.3249 52.2823 32.7197 52.2823 32.7197L66.2697 57.074C66.2697 57.074 62.1545 63.7529 52.4622 68.5428C42.1628 73.6026 31.7734 71.6686 31.7734 71.6686Z" fill="#AFAFAF"/>
<path d="M70.9266 22.5103C70.9266 22.5103 64.8099 14.4822 49.4732 15.4266C37.9145 16.1462 26.918 24.2868 26.918 24.2868L40.9728 0C40.9728 0 48.8211 0.224878 57.8162 6.20664C67.396 12.5482 70.9266 22.5103 70.9266 22.5103Z" fill="#AFAFAF"/>
<path d="M119.185 12.1436C105.805 12.1436 94.9434 23.0052 94.9434 36.3854C94.9434 49.7657 105.805 60.6498 119.185 60.6498C132.565 60.6498 143.427 49.7881 143.427 36.4079C143.427 23.0277 132.588 12.1436 119.185 12.1436ZM119.185 49.9905C111.674 49.9905 105.58 43.8963 105.58 36.3854C105.58 28.8745 111.674 22.7803 119.185 22.7803C126.696 22.7803 132.79 28.8745 132.79 36.3854C132.79 43.8963 126.719 49.9905 119.185 49.9905Z" fill="white"/>
<path d="M32.8547 0.0673828C22.5553 1.19177 13.5377 6.56636 7.57844 14.3921C7.15118 15.584 4.38518 24.3317 12.0535 36.0704L32.8547 0.0673828Z" fill="white"/>
<path d="M70.7682 22.3303C69.7788 21.161 63.5497 14.662 49.7871 15.4041L70.5434 51.4295C74.7261 41.9397 74.5912 31.4379 70.7682 22.3303Z" fill="white"/>
<path d="M32.248 71.691C31.9782 71.646 31.8432 71.6235 31.8432 71.6235C31.8432 71.6235 41.6929 70.3642 48.5517 56.939H6.94922C13.1109 65.3944 22.3759 70.5216 32.248 71.691Z" fill="white"/>
</g>
<defs>
<clipPath id="clip0_2_640">
<rect width="286" height="72.0285" fill="white"/>
</clipPath>
</defs>
</svg>
